/* XPM */
static char *result[] = {
/* columns rows colors chars-per-pixel */
"64 64 4 1 ",
"  c #000001",
". c #F83808",
"X c #ECC78B",
"o c None",
/* pixels */
"oooooooooooooooooooo                        oooooooooooooooooooo",
"oooooooooooooooooooo                        oooooooooooooooooooo",
"oooooooooooooooooooo                        oooooooooooooooooooo",
"oooooooooooooooooooo                        oooooooooooooooooooo",
"oooooooooooooooo    ........................    oooooooooooooooo",
"oooooooooooooooo    ........................    oooooooooooooooo",
"oooooooooooooooo    ........................    oooooooooooooooo",
"oooooooooooooooo    ........................    oooooooooooooooo",
"oooooooooooo    ................................    oooooooooooo",
"oooooooooooo    ................................    oooooooooooo",
"oooooooooooo    ................................    oooooooooooo",
"oooooooooooo    ................................    oooooooooooo",
"oooooooooooo    ............        ............    oooooooooooo",
"oooooooooooo    ............        ............    oooooooooooo",
"oooooooooooo    ............        ............    oooooooooooo",
"oooooooooooo    ............        ............    oooooooooooo",
"oooooooo        ........                ........        oooooooo",
"oooooooo        ........                ........        oooooooo",
"oooooooo        ........                ........        oooooooo",
"oooooooo        ........                ........        oooooooo",
"oooooooo                ................                oooooooo",
"oooooooo                ................                oooooooo",
"oooooooo                ................                oooooooo",
"oooooooo                ................                oooooooo",
"oooo    XXXX    XXXXXXXXXXXXXXXXXXXXXXXXXXXXXXXX    XXXX    oooo",
"oooo    XXXX    XXXXXXXXXXXXXXXXXXXXXXXXXXXXXXXX    XXXX    oooo",
"oooo    XXXX    XXXXXXXXXXXXXXXXXXXXXXXXXXXXXXXX    XXXX    oooo",
"oooo    XXXX    XXXXXXXXXXXXXXXXXXXXXXXXXXXXXXXX    XXXX    oooo",
"oooo    XXXXXXXXXXXXXXXX    XXXXXXXX    XXXXXXXXXXXXXXXX    oooo",
"oooo    XXXXXXXXXXXXXXXX    XXXXXXXX    XXXXXXXXXXXXXXXX    oooo",
"oooo    XXXXXXXXXXXXXXXX    XXXXXXXX    XXXXXXXXXXXXXXXX    oooo",
"oooo    XXXXXXXXXXXXXXXX    XXXXXXXX    XXXXXXXXXXXXXXXX    oooo",
"oooooooo        XXXXXXXX    XXXXXXXX    XXXXXXXX        oooooooo",
"oooooooo        XXXXXXXX    XXXXXXXX    XXXXXXXX        oooooooo",
"oooooooo        XXXXXXXX    XXXXXXXX    XXXXXXXX        oooooooo",
"oooooooo        XXXXXXXX    XXXXXXXX    XXXXXXXX        oooooooo",
"oooooooooooo        XXXXXXXX........XXXXXXXX        oooooooooooo",
"oooooooooooo        XXXXXXXX........XXXXXXXX        oooooooooooo",
"oooooooooooo        XXXXXXXX........XXXXXXXX        oooooooooooo",
"oooooooooooo        XXXXXXXX........XXXXXXXX        oooooooooooo",
"oooooooo        XXXX....                ....XXXX        oooooooo",
"oooooooo        XXXX....                ....XXXX        oooooooo",
"oooooooo        XXXX....                ....XXXX        oooooooo",
"oooooooo        XXXX....                ....XXXX        oooooooo",
"oooo    XXXXXXXX    XXXXXXXX........XXXXXXXX    XXXXXXXX    oooo",
"oooo    XXXXXXXX    XXXXXXXX........XXXXXXXX    XXXXXXXX    oooo",
"oooo    XXXXXXXX    XXXXXXXX........XXXXXXXX    XXXXXXXX    oooo",
"oooo    XXXXXXXX    XXXXXXXX........XXXXXXXX    XXXXXXXX    oooo",
"oooo    XXXXXXXX    ........XXXXXXXX........    XXXXXXXX    oooo",
"oooo    XXXXXXXX    ........XXXXXXXX........    XXXXXXXX    oooo",
"oooo    XXXXXXXX    ........XXXXXXXX........    XXXXXXXX    oooo",
"oooo    XXXXXXXX    ........XXXXXXXX........    XXXXXXXX    oooo",
"oooooooo                                                oooooooo",
"oooooooo                                                oooooooo",
"oooooooo                                                oooooooo",
"oooooooo                                                oooooooo",
"oooooooooooo    ........                ........    oooooooooooo",
"oooooooooooo    ........                ........    oooooooooooo",
"oooooooooooo    ........                ........    oooooooooooo",
"oooooooooooo    ........                ........    oooooooooooo",
"oooooooooooooooo            oooooooo            oooooooooooooooo",
"oooooooooooooooo            oooooooo            oooooooooooooooo",
"oooooooooooooooo            oooooooo            oooooooooooooooo",
"oooooooooooooooo            oooooooo            oooooooooooooooo"
};
