/* XPM */
static char *f79354aafbd0401ea6bb27b5c6a6cecdD92QBP4Qbx5lQ7ER[] = {
/* columns rows colors chars-per-pixel */
"64 64 90 1 ",
"  c #010101",
". c #0A0102",
"X c #000800",
"o c #02010A",
"O c #09000C",
"+ c #0F0112",
"@ c #1E6F00",
"# c #276F00",
"$ c #247400",
"% c #2A7403",
"& c #277C00",
"* c #2B7806",
"= c #ED3A06",
"- c #EF310F",
"; c #EE390B",
": c #F43505",
"> c #FB3506",
", c #F43A04",
"< c #FC3806",
"1 c #F43609",
"2 c #FD360B",
"3 c #F43909",
"4 c #F9380B",
"5 c #F43411",
"6 c #FA3511",
"7 c #F43B15",
"8 c #FC3912",
"9 c #EA400C",
"0 c #F34008",
"q c #7BCE36",
"w c #73CE3E",
"e c #78CE39",
"r c #65D032",
"t c #69D237",
"y c #75D13D",
"u c #79D23D",
"i c #6ECF41",
"p c #6FCF4A",
"a c #75CE43",
"s c #7ACE45",
"d c #76CC4A",
"f c #7ACE4B",
"g c #6DD443",
"h c #75D044",
"j c #79D244",
"k c #73D14B",
"l c #7BD34A",
"z c #7CD555",
"x c #81D355",
"c c #9BE85E",
"v c #9FE767",
"b c #9DEA66",
"n c #AEE667",
"m c #A7EA67",
"M c #ABEA67",
"N c #A5E76D",
"B c #A9E76B",
"V c #A4EB6E",
"C c #AAEA6E",
"Z c #B0E56F",
"A c #A5F16E",
"S c #ADE671",
"D c #A6EA71",
"F c #A9EA72",
"G c #A6EA79",
"H c #B0E770",
"J c #B2E878",
"K c #E6C578",
"L c #E6CD7D",
"P c #E8CF7F",
"I c #F2C077",
"U c #F2BF8E",
"Y c #B7EC82",
"T c #DECA83",
"R c #E6C786",
"E c #EBC485",
"W c #E3CD83",
"Q c #ECC986",
"! c #E5C48B",
"~ c #ECC68B",
"^ c #E1CE8A",
"/ c #EBC98C",
"( c #F2C282",
") c #F3CB85",
"_ c #F2C58A",
"` c #F0C88D",
"' c #EDC792",
"] c #E7CA92",
"[ c #E9CB92",
"{ c #F0C990",
/* pixels */
"kahhakhyhhhhhhhhhhyh                        hyhhhhhhahhhhhhhhhhh",
"whhyhahhhhahhashhuhl  o.                 o  lhqhhhhhasshhhhaahah",
"hhyyfsaahhshkahhyhdyoX .                   oyhjgghhgjdhhhahhhhkh",
"ywylifffhhhhhhhhwjyg.O X                . O.gyjahhhajfsshhhhahhs",
"kjsa&$$$hhhkahha  o.;,41444444344444434444,9.o  shhlbVVAhhhhhhah",
"ghsz@$%%hahahhhh  XO,64<4333334333334133,26:O   hhhfVCCNhhahhhhh",
"hhwl$*%#hahhhhhh o  34<3><<>4><<<<><>4<<4,44  o ahhsVCCFahshahha",
"hhhs$%%%hhhhahhs  ..341<3444444444444444<144.X. hhhdVVDDhhhhkhhh",
"hhahhhhhshhk    3443444461,8=62,<26=8<37,43>>344    VDCChahahhah",
"dhhhhdhhhhhh    >43>4<3>44<3<44>>44<3<<44443444<    NFDChhhhhhhh",
"hhhhhhhashhs    343>4>33,<232=3883=232<,>443>33<  ..NVVVhkhhahha",
"hhahhhhhhhhh    <44443448=3<182=3285<=1233>43444  XobVADhahskhhh",
"hhahhhhhhhhj    44>344<43<25XX..  XX18>34444>334    ldsshhshhhhh",
"hhhhhahsshhs    3<34>43381=2 ..  .. 23384<3>44>4    skhhahhhshah",
"dhhahhhhshhh    444334343<32 .    . 233443>3<434   Xsayhkhhhhhhh",
"hhhhhhahsghs    3>4>34<4<463.      .18<<434434>3    ahhhhaahhahh",
"khghhkhh        44444444                44444443        %#%$dshh",
"whhyhahh        <><>4<<>                <<>4><<>        #%*$fayl",
"hhyyjjay        33333333                34333334        %%$@zsai",
"wyylifff        44444444                43444444        $$&&ahjk",
"lhsa&$$$                4444444344444444                fddwlwww",
"iasz@%%%                3333333113331433                asjlwyhh",
"laaf$*%#                ><>4<<>>>4<<<<<>                jhahyhhy",
"hhad$%%%                4444444444444434                hhkghyhk",
"hhhh    ]~_LO  ./~~/~E/~!//R''/////'R//]~~/~!/~!.  OL_~/    shhh",
"hhhs    /~_WO   //~~~//~~~~/~~/~//~~~~~`/~E/~/~~   OW`~]    shhh",
"hhhh    /E~^.   !~/~~~/!_~{{E~{//[~_'~~U~~/~/~//   .W~E!    hhhh",
"hhhs    /~'[..OO//~~/~/~LWT[K_'!U!~K[TLP/~~/~~~~OOO.['~^    jhhs",
"shhs    !~_K]TLW/E/~!/~~OO..[]~/~~[[..O+~/~////~PLT]K_~U    shhh",
"hhhs    ]{~~~'~_~/~~~//~   .^/E/Q~`W.   /E~!~//~_//]~~{'    shhs",
"hhhj    //~~`/~~//~/~E/~   OW_~[[~`WO   /~~~/~~~/~``~~/!    sggs",
"shhh    //~'Q//]~~~~~/~/.  OP_~//~ELO  .~~/~/~~~]/!Q'///    shhs",
"hhhsVDDDo       !//E''//.   /_/[]E_~   .///'R!/!. o .  oshhhhhhh",
"hhhfVDCN   .    {~/`~~// o  ]/E//R/[  o /~~U//~_    .   hhakhsah",
"hhhjVDDC       o_~~'~~{~  . ~/E__~E~ .  [{~_'{~_oX  X   hhhhhahh",
"hyhjbDDC...X+   WLW]K~[!    U//!!//UX   !~`K[TWP   + ...ahhahhhh",
"hhhsbGDDgghz   .OO..['~Q!//'34,444,3'~'UQ~/[..OOX.  zhggkahhhkha",
"hhysVDDVdluh.  X   .W`~!_~/~444;334,/R/E!//^.   .  .hjjdhhhahahh",
"hhhsVDDDujag.      OW~~]~EE/:4444443`E/E/_/WO      .gajjhshhhhhh",
"hyjsVDCNuhkg.  o.  OL__/]/_'4=444434[_!]]~_LO  .o  .gkyuhhhhahhs",
"khushphy    o  o]!_/4=4> . X  X..     . >4;3[_~]o  o    yhkgsyhk",
"hajsyhhh        /QE]>444..  O.    O.  X.424</EE~        ahawsjsh",
"jwsjsals        _/R',41; X.          .X =443~/~_        sjhsjswj",
"ssjrxggg        R/~U0442oo o.X ...oXXooo4,43'~/!        gggxrhss",
"ghsx  ..~~~~~~~/   XU//UE_)I72=43=17I~_(!//U    /~~~~~~~..  xshg",
"khhg    //~EE/// o. '/E~{URQ5<3><446QRU~_~/~ .  ///E////    hyhp",
"hhsg.   ~~~~~~//    //R/^~~);3,><,3;)/[^///]  o ~~~~/~'/   .gshh",
"ujdg.  o~~~~~~~~.   /_E]E]/(7>244<46(~~~[E_/   .~~~~E~/~o  .gjju",
"qhks    /~~~E~~Eo  o34<>6>47(~/~//~(73<4,263.. o~~~~~~~~   .gfau",
"ghhh  o '/~~~'~~  . 23<4>,,;`~/^^~');3,<<402 X  ~~~~~~~~ o .ghjh",
"dwus  ../////~// X. 29,7>3<6)RU[~U!Q6<4<83=2 .  E~//E///    gyhk",
"jssx    ~~E~E~~~.  X58244;:7I)_E(_/I7>=31286X  .~~~~~~~/..  xjhg",
"ahhtJNCC         ..oX  .. X.oooXooooXo...  Xo..         ggazrjss",
"yhkgVAbD        o  . O.      o   XX      .. .  o        djysjfwu",
"asshnNVC           . .    O.  X...  O.    . .           ajhgjssa",
"khukMDFV o   o   .o X  o   .X .  .     .o Xo o..    o  oyskhsyhk",
"hahhhhahMNGA   o44444444.   .  oo  .    44444444o  .gfwuhhhhhhhh",
"hhhahhhhDDDD    <<4><><< X  .      .    <<4><><<   .galhahahhaah",
"hhhhakhhGDVb    33143333o          X   o33143333    gylphhshhhhh",
"hahhshahVVDY ...44344444   + ...... +   44344444... xshghhhhhshh",
"hshhhhshFDDczwgg        X   zhggghkzX  .        gggzrjssahhhhkha",
"hhhhhhhhMNFHgjld        .  .ajlddjjh.  X        djssjswukhhahahh",
"hhhahhhhFNCHgwhy           .gsjhhhst.           shwyjsshhahhhhhh",
"hahkhhhhGDVZgkau        o  .gjyuuykg.  o        yhkgfyhphhhhshha"
};
