/* XPM */
static char *_8ddde63f78349ace301324165d7aaf5QAL1ZJTQNrUmIDQB[] = {
/* columns rows colors chars-per-pixel */
"100 100 7 1 ",
"  c None",
". c black",
"X c #0D2B19",
"o c #153F24",
"O c #1D5432",
"+ c #25854A",
"@ c #13BE45",
/* pixels */
"                                                                                                    ",
"                                                                                                    ",
"                                                                                                    ",
"                                                                                                    ",
"                                                                                                    ",
"                                                                                                    ",
"                                                                                                    ",
"                                                                                                    ",
"                                                                                                    ",
"                                                                                                    ",
"                                                                                                    ",
"                                                                                                    ",
"                                      XXXXXXXXXXXXXXXXXXXXXXXXX                                     ",
"                                      XXXXXXXXXXXXXXXXXXXXXXXXX                                     ",
"                                      XXXXXXXXXXXXXXXXXXXXXXXXX                                     ",
"                                      XXXXXXXXXXXXXXXXXXXXXXXXX                                     ",
"                                      XXXXXXXXXXXXXXXXXXXXXXXXX                                     ",
"                            XXXXXXXXXX+++++++++++++++++++++++++XXXXXXXXXX                           ",
"                            XXXXXXXXXX+++++++++++++++++++++++++XXXXXXXXXX                           ",
"                            XXXXXXXXXX+++++++++++++++++++++++++XXXXXXXXXX                           ",
"                            XXXXXXXXXX+++++++++++++++++++++++++XXXXXXXXXX                           ",
"                            XXXXXXXXXX+++++++++++++++++++++++++XXXXXXXXXX                           ",
"                       XXXXXOOOOO+++++@@@@@@@@@@@@@@@@@@@@@@@@@+++++OOOOOXXXXX                      ",
"                       XXXXXOOOOO+++++@@@@@@@@@@@@@@@@@@@@@@@@@+++++OOOOOXXXXX                      ",
"                       XXXXXOOOOO+++++@@@@@@@@@@@@@@@@@@@@@@@@@+++++OOOOOXXXXX                      ",
"                       XXXXXOOOOO+++++@@@@@@@@@@@@@@@@@@@@@@@@@+++++OOOOOXXXXX                      ",
"                       XXXXXOOOOO+++++@@@@@@@@@@@@@@@@@@@@@@@@@+++++OOOOOXXXXX                      ",
"                  XXXXXOOOOO+++++@@@@@@@@@@@@@@@@@@@@@@@@@@@@@@@@@@@+++++OOOOOXXXXX                 ",
"                  XXXXXOOOOO+++++@@@@@@@@@@@@@@@@@@@@@@@@@@@@@@@@@@@+++++OOOOOXXXXX                 ",
"                  XXXXXOOOOO+++++@@@@@@@@@@@@@@@@@@@@@@@@@@@@@@@@@@@+++++OOOOOXXXXX                 ",
"                  XXXXXOOOOO+++++@@@@@@@@@@@@@@@@@@@@@@@@@@@@@@@@@@@+++++OOOOOXXXXX                 ",
"                  XXXXXOOOOO+++++@@@@@@@@@@@@@@@@@@@@@@@@@@@@@@@@@@@+++++OOOOOXXXXX                 ",
"             XXXXXOOOOO@@@@@@@@@@@@@@@@@@@@@@@@@@@@@@@@@@@@@@@@@@@@@@@@@@@@@@@OOOOOXXXXX            ",
"             XXXXXOOOOO@@@@@@@@@@@@@@@@@@@@@@@@@@@@@@@@@@@@@@@@@@@@@@@@@@@@@@@OOOOOXXXXX            ",
"             XXXXXOOOOO@@@@@@@@@@@@@@@@@@@@@@@@@@@@@@@@@@@@@@@@@@@@@@@@@@@@@@@OOOOOXXXXX            ",
"             XXXXXOOOOO@@@@@@@@@@@@@@@@@@@@@@@@@@@@@@@@@@@@@@@@@@@@@@@@@@@@@@@OOOOOXXXXX            ",
"             XXXXXOOOOO@@@@@@@@@@@@@@@@@@@@@@@@@@@@@@@@@@@@@@@@@@@@@@@@@@@@@@@OOOOOXXXXX            ",
"             XXXXX+++++@@@@@@@@@@@@@@@@@@@@@@@@@@@@@@@@@@@@@@@@++++++++++@@@@@@@@@@XXXXX            ",
"             XXXXX+++++@@@@@@@@@@@@@@@@@@@@@@@@@@@@@@@@@@@@@@@@++++++++++@@@@@@@@@@XXXXX            ",
"             XXXXX+++++@@@@@@@@@@@@@@@@@@@@@@@@@@@@@@@@@@@@@@@@++++++++++@@@@@@@@@@XXXXX            ",
"             XXXXX+++++@@@@@@@@@@@@@@@@@@@@@@@@@@@@@@@@@@@@@@@@++++++++++@@@@@@@@@@XXXXX            ",
"             XXXXX+++++@@@@@@@@@@@@@@@@@@@@@@@@@@@@@@@@@@@@@@@@++++++++++@@@@@@@@@@XXXXX            ",
"        XXXXXOOOOO++++++++++@@@@@@@@@@+++++@@@@@@@@@@+++++@@@@@@@@@@@@@@@++++++++++OOOOOXXXXX       ",
"        XXXXXOOOOO++++++++++@@@@@@@@@@+++++@@@@@@@@@@+++++@@@@@@@@@@@@@@@++++++++++OOOOOXXXXX       ",
"        XXXXXOOOOO++++++++++@@@@@@@@@@+++++@@@@@@@@@@+++++@@@@@@@@@@@@@@@++++++++++OOOOOXXXXX       ",
"        XXXXXOOOOO++++++++++@@@@@@@@@@+++++@@@@@@@@@@+++++@@@@@@@@@@@@@@@++++++++++OOOOOXXXXX       ",
"        XXXXXOOOOO++++++++++@@@@@@@@@@+++++@@@@@@@@@@+++++@@@@@@@@@@@@@@@++++++++++OOOOOXXXXX       ",
"             XXXXX+++++@@@@@@@@@@@@@@@+++++@@@@@@@@@@+++++@@@@@@@@@@@@@@@+++++++++++++++XXXXX       ",
"             XXXXX+++++@@@@@@@@@@@@@@@+++++@@@@@@@@@@+++++@@@@@@@@@@@@@@@+++++++++++++++XXXXX       ",
"             XXXXX+++++@@@@@@@@@@@@@@@+++++@@@@@@@@@@+++++@@@@@@@@@@@@@@@+++++++++++++++XXXXX       ",
"             XXXXX+++++@@@@@@@@@@@@@@@+++++@@@@@@@@@@+++++@@@@@@@@@@@@@@@+++++++++++++++XXXXX       ",
"             XXXXX+++++@@@@@@@@@@@@@@@+++++@@@@@@@@@@+++++@@@@@@@@@@@@@@@+++++++++++++++XXXXX       ",
"        XXXXX++++++++++++++++++++++++++++++@@@@@@@@@@++++++++++++++++++++++++++++++.....            ",
"        XXXXX++++++++++++++++++++++++++++++@@@@@@@@@@++++++++++++++++++++++++++++++.....            ",
"        XXXXX++++++++++++++++++++++++++++++@@@@@@@@@@++++++++++++++++++++++++++++++.....            ",
"        XXXXX++++++++++++++++++++++++++++++@@@@@@@@@@++++++++++++++++++++++++++++++.....            ",
"        XXXXX++++++++++++++++++++++++++++++@@@@@@@@@@++++++++++++++++++++++++++++++.....            ",
"        .....OOOOO+++++OOOOO++++++++++++++++++++++++++++++++++++++++OOOOOOOOOO+++++OOOOO.....       ",
"        .....OOOOO+++++OOOOO++++++++++++++++++++++++++++++++++++++++OOOOOOOOOO+++++OOOOO.....       ",
"        .....OOOOO+++++OOOOO++++++++++++++++++++++++++++++++++++++++OOOOOOOOOO+++++OOOOO.....       ",
"        .....OOOOO+++++OOOOO++++++++++++++++++++++++++++++++++++++++OOOOOOOOOO+++++OOOOO.....       ",
"        .....OOOOO+++++OOOOO++++++++++++++++++++++++++++++++++++++++OOOOOOOOOO+++++OOOOO.....       ",
"        .....OOOOOOOOOO+++++++++++++++OOOOO+++++++++++++++OOOOO++++++++++OOOOOOOOOOOOOOO.....       ",
"        .....OOOOOOOOOO+++++++++++++++OOOOO+++++++++++++++OOOOO++++++++++OOOOOOOOOOOOOOO.....       ",
"        .....OOOOOOOOOO+++++++++++++++OOOOO+++++++++++++++OOOOO++++++++++OOOOOOOOOOOOOOO.....       ",
"        .....OOOOOOOOOO+++++++++++++++OOOOO+++++++++++++++OOOOO++++++++++OOOOOOOOOOOOOOO.....       ",
"        .....OOOOOOOOOO+++++++++++++++OOOOO+++++++++++++++OOOOO++++++++++OOOOOOOOOOOOOOO.....       ",
"             .....OOOOOOOOOO+++++OOOOOOOOOO++++++++++OOOOOOOOOOOOOOOOOOOOOOOOOOOOOO.....            ",
"             .....OOOOOOOOOO+++++OOOOOOOOOO++++++++++OOOOOOOOOOOOOOOOOOOOOOOOOOOOOO.....            ",
"             .....OOOOOOOOOO+++++OOOOOOOOOO++++++++++OOOOOOOOOOOOOOOOOOOOOOOOOOOOOO.....            ",
"             .....OOOOOOOOOO+++++OOOOOOOOOO++++++++++OOOOOOOOOOOOOOOOOOOOOOOOOOOOOO.....            ",
"             .....OOOOOOOOOO+++++OOOOOOOOOO++++++++++OOOOOOOOOOOOOOOOOOOOOOOOOOOOOO.....            ",
"             .....OOOOOOOOOOOOOOOOOOOOOOOOO+++++++++++++++OOOOOOOOOOOOOOOOOOOOOOOOO.....            ",
"             .....OOOOOOOOOOOOOOOOOOOOOOOOO+++++++++++++++OOOOOOOOOOOOOOOOOOOOOOOOO.....            ",
"             .....OOOOOOOOOOOOOOOOOOOOOOOOO+++++++++++++++OOOOOOOOOOOOOOOOOOOOOOOOO.....            ",
"             .....OOOOOOOOOOOOOOOOOOOOOOOOO+++++++++++++++OOOOOOOOOOOOOOOOOOOOOOOOO.....            ",
"             .....OOOOOOOOOOOOOOOOOOOOOOOOO+++++++++++++++OOOOOOOOOOOOOOOOOOOOOOOOO.....            ",
"                  .....oooooOOOOOOOOOOOOOOOOOOOOOOOOOOOOOOOOOOOOOOOOOOOOOooooo.....                 ",
"                  .....oooooOOOOOOOOOOOOOOOOOOOOOOOOOOOOOOOOOOOOOOOOOOOOOooooo.....                 ",
"                  .....oooooOOOOOOOOOOOOOOOOOOOOOOOOOOOOOOOOOOOOOOOOOOOOOooooo.....                 ",
"                  .....oooooOOOOOOOOOOOOOOOOOOOOOOOOOOOOOOOOOOOOOOOOOOOOOooooo.....                 ",
"                  .....oooooOOOOOOOOOOOOOOOOOOOOOOOOOOOOOOOOOOOOOOOOOOOOOooooo.....                 ",
"                       XXXXXoooooooooooooooooooooooooooooooooooooooooooooXXXXX                      ",
"                       XXXXXoooooooooooooooooooooooooooooooooooooooooooooXXXXX                      ",
"                       XXXXXoooooooooooooooooooooooooooooooooooooooooooooXXXXX                      ",
"                       XXXXXoooooooooooooooooooooooooooooooooooooooooooooXXXXX                      ",
"                       XXXXXoooooooooooooooooooooooooooooooooooooooooooooXXXXX                      ",
"                                 ooooooooooooooooooooooooooooooooooo                                ",
"                                 ooooooooooooooooooooooooooooooooooo                                ",
"                                 ooooooooooooooooooooooooooooooooooo                                ",
"                                 ooooooooooooooooooooooooooooooooooo                                ",
"                                 ooooooooooooooooooooooooooooooooooo                                ",
"                                                                                                    ",
"                                                                                                    ",
"                                                                                                    ",
"                                                                                                    ",
"                                                                                                    ",
"                                                                                                    ",
"                                                                                                    ",
"                                                                                                    "
};
