/* XPM */
static char *result[] = {
/* columns rows colors chars-per-pixel */
"64 64 3 1 ",
"  c #297300",
". c #75D043",
"X c #A6EB70",
/* pixels */
"................................XXXX............................",
"................................XXXX............................",
"................................XXXX............................",
"................................XXXX............................",
"....    ............................XXXX............XXXX........",
"....    ............................XXXX............XXXX........",
"....    ............................XXXX............XXXX........",
"....    ............................XXXX............XXXX........",
"....................................XXXX............XXXX........",
"....................................XXXX............XXXX........",
"....................................XXXX............XXXX........",
"....................................XXXX............XXXX........",
"................XXXX............................................",
"................XXXX............................................",
"................XXXX............................................",
"................XXXX............................................",
"................XXXX....................................    ....",
"................XXXX....................................    ....",
"................XXXX....................................    ....",
"................XXXX....................................    ....",
"....    ....................................XXXX................",
"....    ....................................XXXX................",
"....    ....................................XXXX................",
"....    ....................................XXXX................",
"................................................XXXX............",
"................................................XXXX............",
"................................................XXXX............",
"................................................XXXX............",
"................XXXX............    ............XXXX............",
"................XXXX............    ............XXXX............",
"................XXXX............    ............XXXX............",
"................XXXX............    ............XXXX............",
"....XXXX............XXXX........................................",
"....XXXX............XXXX........................................",
"....XXXX............XXXX........................................",
"....XXXX............XXXX........................................",
"....XXXX............XXXX........................................",
"....XXXX............XXXX........................................",
"....XXXX............XXXX........................................",
"....XXXX............XXXX........................................",
"....................................XXXX........................",
"....................................XXXX........................",
"....................................XXXX........................",
"....................................XXXX........................",
"....................................XXXX........................",
"....................................XXXX........................",
"....................................XXXX........................",
"....................................XXXX........................",
"................................................    XXXX........",
"................................................    XXXX........",
"................................................    XXXX........",
"................................................    XXXX........",
"....XXXX................    ....................XXXX............",
"....XXXX................    ....................XXXX............",
"....XXXX................    ....................XXXX............",
"....XXXX................    ....................XXXX............",
"........XXXX....................................XXXX............",
"........XXXX....................................XXXX............",
"........XXXX....................................XXXX............",
"........XXXX....................................XXXX............",
"........XXXX....................................................",
"........XXXX....................................................",
"........XXXX....................................................",
"........XXXX...................................................."
};
