/* XPM */
static char *result[] = {
/* columns rows colors chars-per-pixel */
"64 64 4 1 ",
"  c #000001",
". c #F83808",
"X c #FFF808",
"o c None",
/* pixels */
"oooooooooooooooooooooooooooooooooooooooooooooooooooooooooooooooo",
"oooooooooooooooooooooooooooooooooooooooooooooooooooooooooooooooo",
"oooooooooooooooooooooooooooooooooooooooooooooooooooooooooooooooo",
"oooooooooooooooooooooooooooooooooooooooooooooooooooooooooooooooo",
"oooooooooooooooooooooooooooooooooooooooooooooooooooooooooooooooo",
"oooooooooooooooooooooooooooooooooooooooooooooooooooooooooooooooo",
"oooooooooooooooooooooooooooooooooooooooooooooooooooooooooooooooo",
"oooooooooooooooooooooooooooooooooooooooooooooooooooooooooooooooo",
"oooooooooooooooooooooooooooooooooooooooooooooooo                ",
"oooooooooooooooooooooooooooooooooooooooooooooooo                ",
"oooooooooooooooooooooooooooooooooooooooooooooooo                ",
"oooooooooooooooooooooooooooooooooooooooooooooooo                ",
"oooooooooooooooooooooooooooooooooooooooooooo    XXXXXXXXXXXX    ",
"oooooooooooooooooooooooooooooooooooooooooooo    XXXXXXXXXXXX    ",
"oooooooooooooooooooooooooooooooooooooooooooo    XXXXXXXXXXXX    ",
"oooooooooooooooooooooooooooooooooooooooooooo    XXXXXXXXXXXX    ",
"                oooooooooooooooooooo                XXXXXXXX    ",
"                oooooooooooooooooooo                XXXXXXXX    ",
"                oooooooooooooooooooo                XXXXXXXX    ",
"                oooooooooooooooooooo                XXXXXXXX    ",
"            XXXX                    XXXX            XXXX    oooo",
"            XXXX                    XXXX            XXXX    oooo",
"            XXXX                    XXXX            XXXX    oooo",
"            XXXX                    XXXX            XXXX    oooo",
"oooo    XXXXXXXXXXXXXXXXXXXXXXXXXXXXXXXXXXXX    XXXX    oooooooo",
"oooo    XXXXXXXXXXXXXXXXXXXXXXXXXXXXXXXXXXXX    XXXX    oooooooo",
"oooo    XXXXXXXXXXXXXXXXXXXXXXXXXXXXXXXXXXXX    XXXX    oooooooo",
"oooo    XXXXXXXXXXXXXXXXXXXXXXXXXXXXXXXXXXXX    XXXX    oooooooo",
"oooooooo    XXXX    XXXXXXXXXXXX    XXXX    XXXX    oooooooooooo",
"oooooooo    XXXX    XXXXXXXXXXXX    XXXX    XXXX    oooooooooooo",
"oooooooo    XXXX    XXXXXXXXXXXX    XXXX    XXXX    oooooooooooo",
"oooooooo    XXXX    XXXXXXXXXXXX    XXXX    XXXX    oooooooooooo",
"oooooooo    XXXXXXXXXXXX....XXXXXXXXXXXX    XXXXXXXX        oooo",
"oooooooo    XXXXXXXXXXXX....XXXXXXXXXXXX    XXXXXXXX        oooo",
"oooooooo    XXXXXXXXXXXX....XXXXXXXXXXXX    XXXXXXXX        oooo",
"oooooooo    XXXXXXXXXXXX....XXXXXXXXXXXX    XXXXXXXX        oooo",
"oooo    XXXXXXXXXXXX....XXXX....XXXXXXXXXXXX    XXXXXXXX    oooo",
"oooo    XXXXXXXXXXXX....XXXX....XXXXXXXXXXXX    XXXXXXXX    oooo",
"oooo    XXXXXXXXXXXX....XXXX....XXXXXXXXXXXX    XXXXXXXX    oooo",
"oooo    XXXXXXXXXXXX....XXXX....XXXXXXXXXXXX    XXXXXXXX    oooo",
"oooo    ....XXXXXXXXXXXXXXXXXXXXXXXXXXXX............    oooooooo",
"oooo    ....XXXXXXXXXXXXXXXXXXXXXXXXXXXX............    oooooooo",
"oooo    ....XXXXXXXXXXXXXXXXXXXXXXXXXXXX............    oooooooo",
"oooo    ....XXXXXXXXXXXXXXXXXXXXXXXXXXXX............    oooooooo",
"oooo    XXXXXXXXXXXXXXXXXXXXXXXXXXXXXXXXXXXX....    oooooooooooo",
"oooo    XXXXXXXXXXXXXXXXXXXXXXXXXXXXXXXXXXXX....    oooooooooooo",
"oooo    XXXXXXXXXXXXXXXXXXXXXXXXXXXXXXXXXXXX....    oooooooooooo",
"oooo    XXXXXXXXXXXXXXXXXXXXXXXXXXXXXXXXXXXX....    oooooooooooo",
"oooo    ....XXXXXXXXXXXXXXXXXXXXXXXXXXXX....    oooooooooooooooo",
"oooo    ....XXXXXXXXXXXXXXXXXXXXXXXXXXXX....    oooooooooooooooo",
"oooo    ....XXXXXXXXXXXXXXXXXXXXXXXXXXXX....    oooooooooooooooo",
"oooo    ....XXXXXXXXXXXXXXXXXXXXXXXXXXXX....    oooooooooooooooo",
"oooo    XXXXXXXXXXXXXXXXXXXXXXXXXXXXXXXXXXXX    oooooooooooooooo",
"oooo    XXXXXXXXXXXXXXXXXXXXXXXXXXXXXXXXXXXX    oooooooooooooooo",
"oooo    XXXXXXXXXXXXXXXXXXXXXXXXXXXXXXXXXXXX    oooooooooooooooo",
"oooo    XXXXXXXXXXXXXXXXXXXXXXXXXXXXXXXXXXXX    oooooooooooooooo",
"oooooooo    XXXXXXXX            XXXXXXXX    oooooooooooooooooooo",
"oooooooo    XXXXXXXX            XXXXXXXX    oooooooooooooooooooo",
"oooooooo    XXXXXXXX            XXXXXXXX    oooooooooooooooooooo",
"oooooooo    XXXXXXXX            XXXXXXXX    oooooooooooooooooooo",
"oooooooooooo        oooooooooooo        oooooooooooooooooooooooo",
"oooooooooooo        oooooooooooo        oooooooooooooooooooooooo",
"oooooooooooo        oooooooooooo        oooooooooooooooooooooooo",
"oooooooooooo        oooooooooooo        oooooooooooooooooooooooo"
};
