/* XPM */
static char *_361163a8ccf4bc3be4645d0d21fe035BsPYHS8K0jg4MJRP[] = {
/* columns rows colors chars-per-pixel */
"64 64 87 1 ",
"  c #010101",
". c #0A0001",
"X c #000A00",
"o c #02010A",
"O c #09000C",
"+ c #010214",
"@ c #1E6F00",
"# c #256E00",
"$ c #257402",
"% c #2A7402",
"& c #277C00",
"* c #2B7806",
"= c #F92D0C",
"- c #EE3A07",
"; c #ED360A",
": c #EF3B08",
"> c #F63501",
", c #FC3503",
"< c #F53B04",
"1 c #FA3904",
"2 c #F3360B",
"3 c #FC350C",
"4 c #F43B0C",
"5 c #FA3A0C",
"6 c #FF2F13",
"7 c #FE3412",
"8 c #F63B12",
"9 c #EA400C",
"0 c #F64600",
"q c #F84703",
"w c #F64900",
"e c #F2410B",
"r c #7BCE36",
"t c #73CC3F",
"y c #78CE39",
"u c #65D032",
"i c #69D237",
"p c #7BD035",
"a c #74D13E",
"s c #79D23D",
"d c #6ECF41",
"f c #6FCF4A",
"g c #76C641",
"h c #75CE43",
"j c #79CE46",
"k c #75CD49",
"l c #7BCE4A",
"z c #6DD344",
"x c #75D044",
"c c #7AD144",
"v c #73D24B",
"b c #7CD24A",
"n c #7ED351",
"m c #FFEF06",
"M c #FFE90F",
"N c #FEF504",
"B c #F5FD03",
"V c #FDFA03",
"C c #FFF60B",
"Z c #F5FD0B",
"A c #FFF90A",
"S c #FFE714",
"D c #FFEB12",
"F c #FFF612",
"G c #FDFA12",
"H c #FEF419",
"J c #81D54B",
"K c #81D355",
"L c #A4EB5D",
"P c #9FE767",
"I c #9DEA66",
"U c #9DEA68",
"Y c #A2E766",
"T c #AEE667",
"R c #A6EA66",
"E c #A6E76D",
"W c #A9E66B",
"Q c #A4EB6C",
"! c #A9EA6E",
"~ c #A5F06F",
"^ c #A6E675",
"/ c #A6EB72",
"( c #A9EB72",
") c #A7EA79",
"_ c #B2E878",
"` c #A8F071",
"' c #ADF578",
/* pixels */
"vxaxhxxxxxxxxxxxxxxchxxxxxxxxxxxQ((Qcxtcxxjxxxxxjxxxhjxxxxxxhxxx",
"txxaxkxxxxxxxxxhhxxxxxxhxhxxhxxx(EEQjvxxxxxxhxxxhxxxhhxxxxxxxxhx",
"xxaabhhtxxxxxhxxxxxxxxxxcxxhxxjv/W!~gxxxhxxxxxxxzxvxchxxxxxxxhxx",
"ztabdllbxxxxxxxxxxhxhxxxxxhvxxxhQQQUblhxxxxxxxhxxxxdbljhxxxhxxxx",
"bxxk&$$$hvhxxhxxxxhxxxxxhxxxxxxxlkllUQQQxxxhxxxhhxxbIQQ/jvxxxxhx",
"xxhn@$%%xxxxxxxxxxxxxxxxxxhxxxxxxxxh`(!QhxxxxxxxcxxlQ!QQxxhxxxxx",
"xxhb$*%#xxxxxxxxhxxxxxxxxhxxhxxxxxxxQEW/xxhxhxxxhxxlQ!((xxxxxxxx",
"xaal$$%%xhxhcxxhxxxxxxxxxxxxxxxhcthbQ((QxxxxxxxxxxxhQQ((xxhxxxxh",
"xxxxxxxhxxcxxxxxxxxhxxxxxxxhxhxxxxxx~Q((kxsjzvxs        . o     ",
"chxxhxxxxxxxhxhxxhhhxxxxhxxcxxxxxxxjQ!((xkccaxxh         o   o  ",
"xhxxxxxxxxxhhxxxvhcxxxxxvhxxxxhxcxhlQQQQstjchsbl        o    +  ",
"xxhxxxxxhxxxxxxxhjjbtzxvxxxxhxxxhhxbIQ!/jjcuKzzz        ....o  o",
"xxhxxxhxxxxxxxhvQQQIbxhhxhxxxxhxxxxdblhhxxhK   .CACCCCCCZZBZ.o  ",
"xxxxxxvjxhxxxxxhEQ(Qlhhcxxxxxxxxxxzxbxxxfxxz    AAAAAVAVVCCV.   ",
"xxxxxxxxxxhxxxxx((!~jhxhxxxxxxxxxxxxxhhxxxxz.   AAVACAAVANCZ  o ",
"xxxhhxxxhxxxxhcx((QQlxxxxxxhhxxxhxxxhhxxsxbz.  oACAAAAAAVAVZ.o  ",
"           o . ./(QQlxxxxxxcxjxcxxhj  .             CAAVGACG .  ",
"              o Q/QQhxxaxxxxxxxxxxcto o             CAAAVVNN    ",
"          +    X//(Qlvxbxxxxxxxhkxhl                CAAAGVVH  o ",
"        o  o.O. /QQYJhhtjjxjcchvcxjsoX              CVAACCCNo   ",
"          o.ZBZZ  .o  X            oVCCC            CACA  Xoplcc",
"           .VCCV                    HVVC            CVVA    bhxk",
"         o .ZCVA                .o XNNVA            CAAAo  otxxx",
"          o.ZVAV                    GAAC            CAAA    ckzx",
"shlz.  oAVVZVAVAAVVAVAAAAAAAAANAAANAVAAVCAVN    GACC   .xhhxxxhx",
"hxxz.   CVFFAVHCCVHGVVHAAVCAAACAAVFFVAHCACGA    VVVA  o xxxxcxxx",
"vxxx    NAHVAVVANNFVANVVAAAAAACNNCGAANVAVCVA o. GVVH    xxhxxxvh",
"zahK  ..ABBGVAVVCZBZVCAVAAAAAAAAZVBZVAVVNAZZ.  oCCCVo   xxxxxhxx",
"cjcuKzzz..O.ZVCG..O.ZNFGAAAANCAA..O.ZVCGo  .ZANV   oplccxxxhxhxx",
"stjctcbho  oVHHVo  oVGFVAAAAAAAAoX OAGFV  o.AVCA    lhhkhxxxxxxx",
"xhcjaxxx   .AVVV   .ZAVVAAAAAAAN    AAVV    ACGV o otxxxxxxxxxxh",
"vvsjxvxs. o.ZNCA. o.ZNCAAAANAAAA. o.ZNCA   oNVVG    svxkxxxhcxxx",
"vhav!/(R. o.ANGAZCVZAFZC5>47VACAAAAAAVAC   oVVAGACNA.o .    cxxx",
"jhcvTQ(Q   .ZVVVmCANVCVV1>5,AVGCACCVACAA    NGCVVVVZ.       jxxx",
"sxxzQQQ/oX OBHHVZCFAAVAA83>4VGANAAAAAAAAo o ABCVAGHVo  o    cxxx",
"axxi_W!(..O.ZVCCGCVVDGCN3146BNAVVCACACVC  ..AGANACVG.O..    cxxh",
"cchK  o ZBBAVAAVANAMw>4<VANB6513AAAAAACAVAAB.. oVAAVZBBA    jxxx",
"kxhj  . NAFAANVAGNVG578>AVGV4>38AAAACVAAACVA o  AVNAVGAN    kxxc",
"xxxx    CVFFVVHCZVVC<;8,CGVA1311AAAAAAACVFCA    AHVVFFVC    cxxx",
"sckj    AVBCVAAVCVCC<131CCNB74>3NAAAACAVCAVVo   AAAVCVVA    jxxx",
"xxxc    13,<NCVAAAACAAAAAAAAAANCAAANAAAA2,1<,3<,3<52..  xhhxxxhx",
"haxl    ,84-CANZVAAAVCCAAAAAANAAAAACAANC334;51:45154 Xo xxxxxxxx",
"hxxx    >871GVNGCCACAAVAAANAAANAAAAAAANA>57,5<,3133>o   xhxxxxxx",
"xxxc    e4>wDAVAAAAVCAACACCAAAAAAAAAAACA9->0=53,24<9.o  xxxxxxhx",
"xxxj    mCHDVAACAAAAVAAAAANAAAAANAAAAAAACCCSq244. o.zacaxxxxxxxx",
"xxxc    ANBVACCZAAAACAVCAAAANAAAAAAAAAANFNBC174>. Xoalcxxxhxhxxx",
"hxxx    VVCANACNAAAACAACAACNAAAAACCAAAAAANVC>25, o  ccpxxxxxxxhv",
"cxxj    AZFCZBCCAACAVAAAAAAAAACNANAANAAAAZCCe<34    xzxxxhhxxxxj",
"xxxc    ,3<4NCVAACVAAAAAAAAAAAAAAANAAACN5,,4.   %%%#(!/Qxxxxhxxx",
"hxxc    ,82:CAVZAAACAAAANANAAAAAAACAAAAA344:    %%%%(E!(xxxxxxhx",
"xxxk    1871CVNHCAAAAAAAAACAAAAAAAAAAAAA>87,o .o$$$*E((/hxxxxxvh",
"xxxc    <<>wDANAAVCAAAAAAAAACNAAAAANAAAA<4>wOX. %%%#'QQQxxxhhxxx",
"jxxc    NCHDVAAGAACAAAAAAAAAAANAAAAAAAANCCCDX  X(^/(gjxhxxxxxxxx",
"xxxj    CVBAVGAVAAVCAAAAANAANAAANCAAAAAACAVA oo W!!PJaaxxhxxxxxh",
"xxxc    VVNVNAACACAAAAAAAANACAAAAAAAAAAAAAVV  ..!(QQcxxxxxhxxxxx",
"jxxx    AZHCZNCZVCAACVCAAACAAAAAANAAAAAACZCCX . //(/hxxxhxxxchxx",
"xhxxxxhx    AAAAGACF   .        AAAAAAAAo  .zvxs((Q~xxxxxxxxxhxx",
"xxxxxxxx oooAAAGVVVN            ANAAANAN   .zhxx(!!Qjxxkhvhcxxxx",
"xxchxhxx    ABAVCVVH            AAACVVAA    zhbvEQ!Qlhxcxhxxxxxh",
"hxxxxxxh   oVAAACACAo o         CCANCCCC..  Kjaz~QQIbxxhxxxxxxxx",
"xxxxxxxx(Y^Ro o   Xopkcclxjjxjch        zzzKuchbhjjlhxxxxxhxhxxx",
"xxvhxxxx^!!(  o     bhxxxxxxxxxx        hbxhcjtsvhjczxzxxxxxxxxh",
"hxhxxxxx!L!Q  o  o ogxxxxxxxxxxx        xcxaccxxxhhxxxxhhxxxvhxx",
"xxxxxxxx)Q)`        ckxxxxxxhbxh        axfxlsxfxxjhxxxjxxxxjxxx"
};
