/* XPM */
static char *_c96913b20a349bab51da25b168b49f8V6rlQenhUlFwwJUO[] = {
/* columns rows colors chars-per-pixel */
"64 64 245 2 ",
"   c black",
".  c #010000",
"X  c #000100",
"o  c #010100",
"O  c #010101",
"+  c #020001",
"@  c #000200",
"#  c #000102",
"$  c #020003",
"%  c #000203",
"&  c #010004",
"*  c #1E6F00",
"=  c #236C00",
"-  c #256E00",
";  c #276F00",
":  c #227200",
">  c #237300",
",  c #247400",
"<  c #257500",
"1  c #267700",
"2  c #277402",
"3  c #267502",
"4  c #267404",
"5  c #277404",
"6  c #297101",
"7  c #297200",
"8  c #297300",
"9  c #2A7202",
"0  c #2E7100",
"q  c #2A7401",
"w  c #2B7502",
"e  c #2C7603",
"r  c #2A7405",
"t  c #297604",
"y  c #297707",
"u  c #277C00",
"i  c #2B7806",
"p  c #F82E06",
"a  c #F83306",
"s  c #FA3604",
"d  c #FB3705",
"f  c #F73802",
"g  c #F03806",
"h  c #FC3806",
"j  c #F13609",
"k  c #F7370A",
"l  c #FF370F",
"z  c #F43808",
"x  c #F63A0A",
"c  c #F43C0A",
"v  c #F83809",
"b  c #F8380B",
"n  c #FD380B",
"m  c #FD3A0A",
"M  c #F9390C",
"N  c #FF380C",
"B  c #FF3B0F",
"V  c #F73712",
"C  c #F53415",
"Z  c #F93914",
"A  c #EF4009",
"S  c #72CE3D",
"D  c #73CF3E",
"F  c #72CE3F",
"G  c #73D13F",
"H  c #75D13E",
"J  c #74D03F",
"K  c #76C641",
"L  c #70C840",
"P  c #76C943",
"I  c #75CB42",
"U  c #70CD40",
"Y  c #71CC41",
"T  c #71CE41",
"R  c #72CD42",
"E  c #73CE42",
"W  c #72CF42",
"Q  c #73CE43",
"!  c #72CF43",
"~  c #74CC41",
"^  c #75CE40",
"/  c #76CF41",
"(  c #75CD42",
")  c #76CC43",
"_  c #74CF43",
"`  c #76CE43",
"'  c #77CE43",
"]  c #75CB44",
"[  c #71CD44",
"{  c #74CC44",
"}  c #77CD44",
"|  c #74CF44",
" . c #76CE44",
".. c #77CF44",
"X. c #77CF45",
"o. c #79CD43",
"O. c #78CA44",
"+. c #78CF44",
"@. c #78CE45",
"#. c #7ACE45",
"$. c #7BCD47",
"%. c #79CF46",
"&. c #78CE47",
"*. c #7BCE48",
"=. c #7CCE48",
"-. c #7CCF49",
";. c #79CE4C",
":. c #7ACF4D",
">. c #73D041",
",. c #73D240",
"<. c #73D043",
"1. c #73D242",
"2. c #74D041",
"3. c #74D341",
"4. c #76D241",
"5. c #74D142",
"6. c #75D142",
"7. c #75D243",
"8. c #74D343",
"9. c #76D442",
"0. c #77D543",
"q. c #72D044",
"w. c #73D044",
"e. c #73D145",
"r. c #73D244",
"t. c #72D345",
"y. c #75D044",
"u. c #74D144",
"i. c #75D045",
"p. c #76D145",
"a. c #75D245",
"s. c #74D345",
"d. c #75D246",
"f. c #77D246",
"g. c #76D346",
"h. c #77D247",
"j. c #76D347",
"k. c #77D445",
"l. c #75D446",
"z. c #77D447",
"x. c #78D443",
"c. c #79D045",
"v. c #78D046",
"b. c #7AD146",
"n. c #78D347",
"m. c #7CD044",
"M. c #75D148",
"N. c #76D448",
"B. c #7BD14A",
"V. c #7CD249",
"C. c #7FD14B",
"Z. c #79D448",
"A. c #78D549",
"S. c #7DD54A",
"D. c #7CD14F",
"F. c #7ED351",
"G. c #81D54B",
"H. c #9EE666",
"J. c #9DEA66",
"K. c #9DEA68",
"L. c #A6E66B",
"P. c #A2E66F",
"I. c #A7E76C",
"U. c #A7E76D",
"Y. c #A8E56C",
"T. c #A1E969",
"R. c #A2EA6A",
"E. c #A3EB6B",
"W. c #A2E96F",
"Q. c #A4E86D",
"!. c #A7E96D",
"~. c #A5E96E",
"^. c #A6EB6E",
"/. c #A6EA6F",
"(. c #A3EE6D",
"). c #A2ED6E",
"_. c #A2EC6F",
"`. c #A4EC6C",
"'. c #A5ED6D",
"]. c #A6EE6E",
"[. c #A8E86D",
"{. c #A8E86E",
"}. c #A9E96E",
"|. c #A9E96F",
" X c #A8EA6E",
".X c #A8EA6F",
"XX c #A9EB6F",
"oX c #A5F06F",
"OX c #A7E870",
"+X c #A6EA71",
"@X c #A7E872",
"#X c #A7EB72",
"$X c #A6EA73",
"%X c #A4EE71",
"&X c #A5EF72",
"*X c #A8E971",
"=X c #AAEA70",
"-X c #ABEB71",
";X c #A8E973",
":X c #A9EA72",
">X c #ACE970",
",X c #AAEC71",
"<X c #A8EC73",
"1X c #A9EA74",
"2X c #AEEF77",
"3X c #A8F070",
"4X c #A9F174",
"5X c #ADF578",
"6X c #FFFFF3",
"7X c #FDFDF5",
"8X c #FFFFF4",
"9X c #FEFFF5",
"0X c #FFF6FF",
"qX c #F6FCFA",
"wX c #F6FFFC",
"eX c #F7FFFD",
"rX c #F4FCFE",
"tX c #F5FDFF",
"yX c #F8FDF9",
"uX c #F8FFFB",
"iX c #FFFFF8",
"pX c #FFF8FC",
"aX c #FFFBFC",
"sX c #FFF8FF",
"dX c #FFFBFF",
"fX c #FAFFFC",
"gX c #FBFFFC",
"hX c #FBFFFD",
"jX c #FAFCFF",
"kX c #F9FFFF",
"lX c #FAFFFE",
"zX c #FBFFFF",
"xX c #FFFCFD",
"cX c #FFFDFD",
"vX c #FEFFFD",
"bX c #FFFFFD",
"nX c #FDFDFF",
"mX c #FFFDFE",
"MX c #FFFDFF",
"NX c #FCFFFF",
"BX c #FEFEFE",
"VX c #FEFEFF",
"CX c #FFFEFF",
"ZX c #FEFFFF",
"AX c white",
/* pixels */
"M.T 5.g.T M.g.` g.` <.g.` | | g.g.` <.T g.| | g.` ` <.g.| g.` ` W.#X,XE.A.T T m.` <.g.g.| | g.` ` ` <.g.` #.5.<.g.` ` ` g.g.` T ",
"T 5.9.J g.` T x.g.w.` g.T g.` ` ` ` g.` g.| | g.` g.T ` | g.` g.#XU.L.`.#.M.g.5.g.` ` T ` g.| | | g.w.<.` O.T g.| 5.g.| ` <.| g.",
"k.9.J S A.#.` I ` | | ` g.T g.` | g.` g.` ` <.T g.` g.| ` T g.` /.[.[.3XP w.w.<.g.` T ` ` <.g.g.<.w.t.w.A.| g.g.g.g.` | <.` | g.",
"S S J S.L ;.;.A.T g.g.` | ` g.<.| g.T <.` g.g.` ` ` g.| g.<.` ` E.E.`.K.D.*.&.#.| | g.g.g.` ` T g.k.w.T B.#.O.I ` | T g.g.g.` ` ",
"N.Z.g.] u < , , ` g.g.T | ` g.` | g.` ` | 5.#.| <.g.` T g.| | g.| #.$.D.J.`.`.E.g.` ` <.T ` ` g.T T | B.J.`.`.oXg.T <.` ` | | g.",
"[ T ` F.* < r q ` | | ` g.` g.<.| g.` g.g.` g.| T ` g.<.g.| | g.g.[ g.P 3X[.[.[.| | g.` g.g.<.w.x.#.#.=.W.[././.| ` g.g.T g.` ` ",
"A.` ` D.: i r 6 g.` <.g.` g.` T ` T g.w.` | x.| g.g.` ` ` ` <.T ` g.M.#.`.U./.:XT g.` g.| | ` ` | w.| =.`. X[.:X| g.` ` g.T g.` ",
"5.5.` #.< q 6 6 g.<.` g.` | | g.g.<.` ` ` g.| | | | ` g.` g.g.` #.S ` A.K.,X,XW.` g.<.` ` g.g.| ` w.g.| oX/.:X,X` ` g.| | ` g.<.",
"<.` ` g.` g.g.T ` T g.| | ` g.` | #.| #.g.#.g.| O O O O O O O           O O O O x.#.| #.| #.| #.5.w.g.*.`./.[.:Xg.` <.g.` | | g.",
"g.g.` | ` | | ` | g.T ` g.` g.<.5.g.g.5.g.5.5.g.    O O   %           % %       x.g.<.g.5.g.g.5.g.` [ #.`. X:X:Xg.<.` g.T g.` ` ",
"` T g.| g.` <.g.| ` g.g.` g.` T [ w.` g.T [ g.[ O O O O O O     O O O O O O     w.| T g.[ g.| g.x.| ` $.E. X/.Q.` | | ` g.T g.` ",
"| g.T ` g.<.` g.g.` ` <.` | | g.x.#.#.x.#.x.#.#.O O       O       O             #.#.| #.x.#.#.x.] ` g.S.J.`.oX#XT g.g.` | ` g.<.",
"| ` g.` g.| | ` <.` ` g.g.g.` T   O O O         B M M M M M M M B M k M M M M M     O     O O O g.g.w.T B.$.O.P ` g.g.T | ` g.` ",
"g.` g.<.T ` g.` g.g.` | ` <.| g.$ $ O O O O O   x z z z g k x z g x c k x j j c     O $ O O O $ T <.t.[ g.#.g.g.` | | ` g.` g.<.",
"` g.` T <.g.` g.` T g.| <.` | g.$ % % % $ $ % % h d d h d v h h h h h h h h h d % % $ % $ $ % $ T g.k.w.T | 5.<.g.` <.g.` g.` T ",
"` | | g.` g.` | | g.T ` g.g.` `       O         M M k M k n v l M M v v v v n k     %           | g.<.w.` o.g.T g.<.` g.` | | g.",
"M.<.5.k.T g.g.T #.5.g.x.    $ O M M v v v v v v n d b k hXhXhXhXhXhXhXhXk x d M v v v v v v v v   $     #.w.<.| 9 6 q < =.` J 5.",
"T <.5.G g.` g.5.| 5.<.#.    $   v v v v v v v v v h c k hXhXhXhXhXhXhXhXk x h k v v v v v v v v   O O   #.w.<.g.6 r i : F.T | k.",
"k.9.J S Z.#.` D #.5.g.*.    %   v v v v v v v v k v x k hXhXhXhXhXhXhXhXk x d M v v v v v v v v O $ O   #.g.5.| w r < * G.| ` T ",
"F S G S.] ;.;.=.| <.<.| O   $   v v v v v v v v n h x k hXhXhXhXhXhXhXhXk x M k v v v v v v v v   O   O #.g.5.#., , < u ] g.M.Z.",
"N.g.g.` u < , : | g.5.#.O   $   v v v v v v v v v h x k hXhXhXhXhXhXhXhXk x h n v v v v v v v v O O   O x.g.5.| =.;.;.L D.J S T ",
"[ ] ` D.* , r q #.5.g.#.O   $   v v v v v v v v v h x v hXhXhXhXhXhXdXhXk x h v v v v v v v v v   $   O #.g.5.#.` ` *.x.S J 9.k.",
"g.` ` D., i r , | 5.| x.O   $   v v v v v v v v b M k v hXhXhXhXhXhXhXhXk x d n v v v v v v v v O $   O #.w.5.| 9.g.[ g.J 9.5.T ",
"5.5.` =.< 9 6 9 #.| g.x.O       v v v v v v v v b d b n hXhXhXbXhXhXhXhXv x v v v v v v v v v v O O O O #.w.5.g.T g.g.T g.<.<.M.",
"g.g.` [ ` <.g.g.  %     v x s M v v v v v v v v v v v v v v v v n v v v v v v v v v v v v v v v M s x M   O %   5.| T g.| ` ` g.",
"` 5.` g.g.` ` T         v x s M v v v v v v v v v v v v v v v v v v v v v v v v v v v v v v v v M s x M O   %   ` g.` g.| g.<.` ",
"T ` 5.g.g.` T `   %     x x s M v v v v v v v v v v v v v v v v v v v v v v v v v v v v v v v v M s x M O   %   ` 5.| | g.| g.` ",
"g.g.| ` | | g.g.  %     M x s M v v v v v v v v v v v v v v v v v v v v v v v v v v v v v v v v M s x M O   %   g.` g.` ` | g.T ",
"| | g.` ` g.` <.  %   O M x s M v v v v v v v v v v v v v v v v v v v v v v v v v v v v v v v v M s x M     %   ` g.g.| ` <.g.` ",
"` g.| | <.` g.`   %   O M x s M v v v v v v v v v v v v v v v v v v v v v v v v v v v v v v v v M s x x     %   <.` ` | g.` g.T ",
"` <.g.g.g.g.| `   %   O M x s M v v v v v v v v v v v v v v v v v v v v v v v v v v v v v v v v M s x v         g.` T g.` g.| | ",
"g.` ` T ` T | g.  % O   M x s M v v v v v v v v v v v v v v v v v v v v v v v v v v v v v v v v M s x v     %   g.T ` g.<.` ` g.",
"g.5.<.#.W.#XOX/.      O hXhXhXhXhXzXbXhXz Z n f b b k n k k n k n k k n k k b b f n V z hXbXhXhXhXhXhXhXO       x.| g.` <.T g.| ",
"` 5.5.#.`.#XOX/.      O dXhXhXhXhXhXaXqXB g n a d d d d v d d d d d d d d d d v a M g B qXaXhXhXhXhXhXdXO       #.| ` ` g.` g.| ",
"| 5.` #.K.$XOX/.      O hXhXhXhX9XhXdXqXl g x Z x x x x x x k x x x x x x x x x Z c c l qXdXhX9XhXhXhXhXO       g.| g.g.` g.` ` ",
"g.5.g.x.`.#XOX/.    O O hXhXhXhXdXrXzX6XC a l j k k k k k k n v k k k k k k k k j n p C 6XzXrXdXhXhXhXhXO       | | ` | T <.` g.",
"` 5.5.#.K.$X#X/.      O hXhXhXhXhXdX0XzX6XtXzXhXhXhXhXhXhXhXhXhXhXhXhXhXhXhXhXhXhXhXzX6XzX0XdXhXhXhXhXhXO O     | | ` g.g.g.` ` ",
"` 5.5.#.`./.#X/.      O hXhXhXhXhXhXuXdXzX0XaX9XhXhXhXdXhXdXdXhXdXhXdXhXhXdXdXhX7XdX0XzXdXuXzXhXhXhXhXhXO       g.g.T <.| | ` g.",
"4.5.5.$.`.#X:X[.      O hXhXhXhXdXhXzXdXjXhXdXhXhXhXhXhXhXhXhXhXhXhXhXhXhXhXhXhXhXhXhXtXaXzXhXdXhXhXhXdXO       ` ` g.` | | <.g.",
"5.5.5.$.W.#X#X:X      O hXhXhXhX6XhXhXyXhX9XhXhXhXhXhXhXhXhXhXhXhXhXhXhXhXhXhXhXhXhX9XdXyXhXhX9XhXhXhXhXO       ` g.` ` g.g.T ` ",
"x.| ` ` g.g.` T #.5.g.x.    $ O hXhXhXhXhXhXhXhXhXhXhXhXhXhXhXhXhXhXhXhXhXhXhXhXhXhXhXhXhXhXhXhX  %   O #.g.g.#.<.g.` T g.g.` ` ",
"| | g.| ` <.| g.| 5.w.#.    $   hXhXhXhXhXhXhXhXhXhXhXhXhXhXhXhXhXhXhXhXhXhXhXhXhXhXhXhXhXhXhXhXO     O | <.<.| T ` g.<.| | ` g.",
"#.g.` | <.` | g.#.5.g.g.    %   hXhXhXhXhXhXhXhXhXhXhXhXhXhXhXhXhXhXhXhXhXhXhXhXhXhXhXhXhXhXhXhXO     O #.g.5.#.g.g.` ` | | <.g.",
"g.` T g.g.g.` ` | 5.[ *.O   $   hXhXhXhXhXhXhXhXhXhXhXhXhXhXhXhXhXhXhXhXhXhXhXhXhXhXhXhXhXhXhXhXO $     #.w.5.| | | ` g.g.g.T ` ",
"g.T <.` ` | | g.g.5.g.#.  O $   hXhXhXhXhXhXhXhXhXhXhXhXhXhXhXhXhXhXhXhXhXhXhXhXhXhXhXhXhXhXhXhXO $   O | g.5.#.g.` | | ` ` <.g.",
"| ` g.g.T g.` ` #.5.T #.  O $   hXhXhXhXhXhXhXhXhXhXhXhXhXhXhXhXhXhXhXhXhXhXhXhXhXhXhXhXhXhXhXhXO   O O #.` 5.| ` ` g.g.` g.T ` ",
"| g.` ` g.T g.` | 5.g.$.O O $   hXhXhXhXhXhXhXhXhXhXhXhXhXhXhXhXhXhXhXhXhXhXhXhXhXhXhXhXhXhXhXhXO     O | g.<.#.<.g.` T g.` g.| ",
"` ` g.| | ` g.<.#.5.5.x.O O $ O hXhXhXhXhXhXhXhXhXhXhXhXhXhXhXhXhXhXhXhXhXhXhXhXhXhXhXhXhXhXhXhXO O O O #.g.5.g.T ` g.<.` ` g.| ",
"| ` <.g.` | g.<.5.g.g.| | ` g.`       %         hXhXhXhXhXhXhXhXhXhXhXhXhXhXhXhX                w 6 i - 5XY./.%X| g.g.| | ` g.` ",
"| g.g.<.` ` ` <.| ` T ` g.` g.<.% $ $ % % $ % $ hXhXhXhXhXhXhXhXhXhXhXhXhXhXhXhX$ % $ % % $ % % 9 r r q 1XY.[.:X| ` T ` g.` g.<.",
"<.t.w.<.A.#.g.g.g.w.g.g.` g.` T   O     $ O O O hXhXhXhXhXhXhXhXhXhXhXhXhXhXhXhXO O O O $ $     < 4 4 e P.[.[.#Xg.w.g.g.` g.` T ",
"g.t.w.U B.O.O.I ` ` ` <.` | | g.O         O O O hXhXhXhXhXhXhXhXdXhXhXhXhXhXhXhXO O O O O   O   6 q q = 5X`.`.#X` ` ` <.` | | g.",
"` T g.B.J./.`.oX<.` ` g.g.g.` T #.#.g.#.x.#.#.#.O O O O O O O O     O O       O x.#.#.*.#.x.#.#.:X:X#X4XK o.5.` <.` ` g.g.g.` T ",
"#.| | *.E.[././.g.g.` | ` <.| g.<.g.T g.[ w.w.5.  O                             g.| <.w.<.g.[ w.[.>X,XH.G.G <.<.g.g.` | ` <.| g.",
"5.` [ *.`. X X:X` T g.| <.` | g.5.5.g.5.g.g.5.5.                                5.g.<.9.5.5.g.5.`.:XY.E.x.<.<.5.` T g.| <.` | g.",
"5.g.g.#.`./.:X,X| g.T ` g.g.` ` #.| #.| #.| #.|                                 | #.| g.#.| #.| %X#X#X#XI g.5.#.| g.T ` g.g.` ` ",
"` g.g.| g.| T ` /.OX#X`.| 5.5.| g.` <.T g.| | g.| | ` g.` g.g.` x.| | | g.g.` ` ` ` g.g.` T g.| ,X:X/.`.#.g.g.5.| g.` ` g.g.` T ",
"<.` ` | ` | g.g./.OX%X`.#.5.5.| ` ` g.` g.| | g.g.g.T <.T <.` ` | | | g.` | ` g.g.| ` <.| g.T ` :X X X`.*.[ ` 5.` ` g.| ` <.| g.",
"g.` T g.` g.` <./.OX#X`.$.5.4.| | g.` g.` ` <.T ` ` g.` g.| | g.x.| #.| ` g.5.| g.| <.` | ` g.g././.[.E.*.| | #.g.g.` | <.` | g.",
"g.T ` g.<.` g.w./.OX#XW.$.5.| x.| g.T <.` g.g.` ` g.` ` g.| | g.| | g.| T | ` g.T ` g.g.g.` ` <.oX`./.J.B.g.T ` ` <.T g.g.g.` ` ",
"| ` ` g.g.` | ` /.#X$XK.$.5.4.g.| g.` ` ` g.g.` <.T g.| g.` <.T | | ` g.g.g.` ` g.| | ` <.` ` ` I O.O.B.U w.t.g.g.T <.` ` | | g.",
"| g.<.` T g.g.` /.#X$X`.o.5.5.` | g.` g.T <.` ` g.` g.| ` ` g.` g.g.T <.| | ` g.T ` g.` g.g.w.g.g.g.#.A.<.w.t.<.| ` g.g.T g.` ` ",
"g.| g.` ` ` g.| /.#X#X`.$.5.5.5.` T g.` g.| | g.` g.` ` | g.` g.` ` g.` | | <.g.<.g.` g.` T ` | <.` ` ` <.g.g.| | g.` ` g.T g.` ",
"` | g.T g.| ` | /.U.#X`.#.5.5.#.g.<.` ` g.| | g.T <.` g.| g.T <.` g.` ` g.g.T ` ` g.` | | g.g.5.<.g.| ` g.<.` | ` ` g.| | ` g.<."
};
