/* XPM */
static char *_944cce329a64f3b8ae93e3ecb82d4dbMoQff8fEoELTplWe[] = {
/* columns rows colors chars-per-pixel */
"64 64 4 1 ",
"  c None",
". c #000001",
"X c #F83808",
"o c white",
/* pixels */
"                                                                ",
"                                                                ",
"                                                                ",
"                                                                ",
"                                                                ",
"                                                                ",
"                                                                ",
"                                                                ",
"                        ................                        ",
"                        ................                        ",
"                        ................                        ",
"                        ................                        ",
"                ........XXXXXXXXXXXXXXXX........                ",
"                ........XXXXXXXXXXXXXXXX........                ",
"                ........XXXXXXXXXXXXXXXX........                ",
"                ........XXXXXXXXXXXXXXXX........                ",
"            ....XXXXXXXXXXXXooooooooXXXXXXXXXXXX....            ",
"            ....XXXXXXXXXXXXooooooooXXXXXXXXXXXX....            ",
"            ....XXXXXXXXXXXXooooooooXXXXXXXXXXXX....            ",
"            ....XXXXXXXXXXXXooooooooXXXXXXXXXXXX....            ",
"            ....XXXXXXXXXXXXooooooooXXXXXXXXXXXX....            ",
"            ....XXXXXXXXXXXXooooooooXXXXXXXXXXXX....            ",
"            ....XXXXXXXXXXXXooooooooXXXXXXXXXXXX....            ",
"            ....XXXXXXXXXXXXooooooooXXXXXXXXXXXX....            ",
"        ....XXXXXXXXXXXXXXXXXXXXXXXXXXXXXXXXXXXXXXXX....        ",
"        ....XXXXXXXXXXXXXXXXXXXXXXXXXXXXXXXXXXXXXXXX....        ",
"        ....XXXXXXXXXXXXXXXXXXXXXXXXXXXXXXXXXXXXXXXX....        ",
"        ....XXXXXXXXXXXXXXXXXXXXXXXXXXXXXXXXXXXXXXXX....        ",
"        ....XXXXXXXXXXXXXXXXXXXXXXXXXXXXXXXXXXXXXXXX....        ",
"        ....XXXXXXXXXXXXXXXXXXXXXXXXXXXXXXXXXXXXXXXX....        ",
"        ....XXXXXXXXXXXXXXXXXXXXXXXXXXXXXXXXXXXXXXXX....        ",
"        ....XXXXXXXXXXXXXXXXXXXXXXXXXXXXXXXXXXXXXXXX....        ",
"        ....ooooooooXXXXXXXXXXXXXXXXXXXXXXXXoooooooo....        ",
"        ....ooooooooXXXXXXXXXXXXXXXXXXXXXXXXoooooooo....        ",
"        ....ooooooooXXXXXXXXXXXXXXXXXXXXXXXXoooooooo....        ",
"        ....ooooooooXXXXXXXXXXXXXXXXXXXXXXXXoooooooo....        ",
"        ....oooooooooooooooooooooooooooooooooooooooo....        ",
"        ....oooooooooooooooooooooooooooooooooooooooo....        ",
"        ....oooooooooooooooooooooooooooooooooooooooo....        ",
"        ....oooooooooooooooooooooooooooooooooooooooo....        ",
"            ....oooooooooooooooooooooooooooooooo....            ",
"            ....oooooooooooooooooooooooooooooooo....            ",
"            ....oooooooooooooooooooooooooooooooo....            ",
"            ....oooooooooooooooooooooooooooooooo....            ",
"            ....oooooooooooooooooooooooooooooooo....            ",
"            ....oooooooooooooooooooooooooooooooo....            ",
"            ....oooooooooooooooooooooooooooooooo....            ",
"            ....oooooooooooooooooooooooooooooooo....            ",
"                ........oooooooooooooooo........                ",
"                ........oooooooooooooooo........                ",
"                ........oooooooooooooooo........                ",
"                ........oooooooooooooooo........                ",
"                        ................                        ",
"                        ................                        ",
"                        ................                        ",
"                        ................                        ",
"                                                                ",
"                                                                ",
"                                                                ",
"                                                                ",
"                                                                ",
"                                                                ",
"                                                                ",
"                                                                "
};
