/* XPM */
static char *be82da6355f7401e9af7b76e0efb33c95rQ9DeVxc2BYJkJG[] = {
/* columns rows colors chars-per-pixel */
"31 32 6 1 ",
"  c None",
". c black",
"X c #584B44",
"o c #6D6666",
"O c #8B8484",
"+ c #BAB0B0",
/* pixels */
"               +++             ",
"          OO+XXOOO+XX          ",
"       +XOOO+XXOOO+XOO+X       ",
"     XOO+XoOO+XOOOXXOO+XXO     ",
"    XXoOOXXoO+XoooXOO+XXOO+    ",
"   O+XXoO+XXo.....oO+XOOOO+X   ",
"  XOOO+XOO...........XoO++XO+  ",
"  XooO+................+XXOOO+ ",
" XXXXoX..................oOOOX ",
" XXO+X...................oOOXX ",
" XoOO+....................oXXO+",
" XooOO....................XOOO+",
"OOXXXX....................oOOOX",
"oOOXX......................oXX+",
"XoO++......................XOOO",
"XXoO+......................oOOO",
"XXXXX......................oOOX",
"oOO+X......................XXX+",
"XOOO+......................oOOO",
"XoOO+......................oOOO",
"XoXoX......................XooX",
"XXXXX......................OXX+",
"OO++X......................OOOO",
"oOOO+......................ooOX",
"ooOXX......................XXXX",
"XoXXX......................OO+X",
"XXX++......................OOO+",
"XOOO+......................oOOO",
"XOOOO......................XoOX",
"XXXXX......................XXX+",
"OOO+X......................oOOO",
"ooOOX......................XoOO"
};
