/* XPM */
static char *_39383f4fc55467693c898b793df9c8fopxvVuUen9dExJXu[] = {
/* columns rows colors chars-per-pixel */
"64 64 156 2 ",
"   c #2E3B29",
".  c #373A27",
"X  c #35342F",
"o  c #39352C",
"O  c #363A2C",
"+  c #3A3A2D",
"@  c #3C2E34",
"#  c #372E3F",
"$  c #3B2D3E",
"%  c #2E3933",
"&  c #25373B",
"*  c #2F373A",
"=  c #2B3A3B",
"-  c #353634",
";  c #3C3435",
":  c #343A34",
">  c #3A3934",
",  c #35353B",
"<  c #3B353B",
"1  c #343A3A",
"2  c #3A3A3B",
"3  c #40392F",
"4  c #402E3E",
"5  c #413436",
"6  c #423B31",
"7  c #423639",
"8  c #413D3C",
"9  c #1E6F00",
"0  c #1E7200",
"q  c #2A6402",
"w  c #266E01",
"e  c #2C6D02",
"r  c #256E0A",
"t  c #316B00",
"y  c #396A01",
"u  c #306608",
"i  c #247301",
"p  c #297101",
"a  c #277C00",
"s  c #2A7902",
"d  c #2A7109",
"f  c #317102",
"g  c #294038",
"h  c #364133",
"j  c #3A4233",
"k  c #34453A",
"l  c #343640",
"z  c #3A3643",
"x  c #353943",
"c  c #3B3A43",
"v  c #3C3B4B",
"b  c #403A46",
"n  c #68BC04",
"m  c #5DC503",
"M  c #55CB05",
"N  c #5EC904",
"B  c #5CC60C",
"V  c #55CC08",
"C  c #5DCA0C",
"Z  c #5EC412",
"A  c #5DCC12",
"S  c #57C818",
"D  c #63C503",
"F  c #62CA04",
"G  c #62C50A",
"H  c #62C90A",
"J  c #68C80C",
"K  c #73C40D",
"L  c #60D002",
"P  c #60D00C",
"I  c #61C612",
"U  c #63CB11",
"Y  c #6CCA12",
"T  c #62C41C",
"R  c #6DCB37",
"E  c #74CD3D",
"W  c #79CD3D",
"Q  c #6AD338",
"!  c #76D136",
"~  c #74D13D",
"^  c #79D33D",
"/  c #72DB3F",
"(  c #6DCE40",
")  c #6FCA4B",
"_  c #76C641",
"`  c #74CE43",
"'  c #79CD45",
"]  c #75C749",
"[  c #75CC4B",
"{  c #7ACE4A",
"}  c #6AD343",
"|  c #69D049",
" . c #75D044",
".. c #79D245",
"X. c #72D846",
"o. c #74D24B",
"O. c #7ED048",
"+. c #7CD249",
"@. c #79D549",
"#. c #7CD14F",
"$. c #7AD34A",
"%. c #7ECE53",
"&. c #74D051",
"*. c #74D051",
"=. c #7ED351",
"-. c #7ED351",
";. c #86D337",
":. c #86D337",
">. c #83CB4D",
",. c #80D04B",
"<. c #81D54B",
"1. c #ABF943",
"2. c #ACF84E",
"3. c #AFFE4D",
"4. c #B3F04B",
"5. c #B3F549",
"6. c #B0F54D",
"7. c #ACF752",
"8. c #AFF054",
"9. c #ABF852",
"0. c #AFFB50",
"q. c #B6F453",
"w. c #B8F250",
"e. c #B5F850",
"r. c #BAF855",
"t. c #B6F85A",
"y. c #9EE666",
"u. c #9DEA66",
"i. c #9DEA66",
"p. c #A6E467",
"a. c #ACE465",
"s. c #A5E76D",
"d. c #A8E56C",
"f. c #A2EA6A",
"g. c #A4E86D",
"h. c #A7E96D",
"j. c #A5E96E",
"k. c #A3EE6D",
"l. c #A4EC6C",
"z. c #A5ED6D",
"x. c #A6EE6E",
"c. c #A4EB6D",
"v. c #A8EA6E",
"b. c #A9EB6F",
"n. c #A9EA6E",
"m. c #A5F06F",
"M. c #A5F06F",
"N. c #BCF067",
"B. c #A6EA71",
"V. c #A8E971",
"C. c #AAEA70",
"Z. c #A9EA72",
"A. c #AAEA72",
"S. c #B2E878",
"D. c #ACF173",
"F. c #ADF578",
/* pixels */
"o.`  . .E o. .~  . .` .. . . . . . .`  . . . . .~ ..W ! c 1 X 2 2 ; 2 c ! W @.!  . . . . .` `  .` ` ~ o.` ' o. . . . . . .`  . .",
"E  .X.~ o.`  ... . .o.` `  . . ...`  . . . . . .` o.E o.- < + - - o 2 - o.E *.(  .`  . . . . . ...o. . .` ` E  . . . . . . . . .",
"..X.~ E @.o.` ~  . . . ... . . .` o. . . . . . .E ~ o. .x > c x v 2 ; x ^ |  .W .. . . . . . ...}  .X.` ..' o... . . . . ... . .",
"E E ~ +._ { { +. . . . .`  . .`  . . . .` ..`  .^  .W ;.& : + , 1 O : & :.W o.! ` o.`  . . . .` o. . .E { ' ' `  . . . . .`  . .",
"@.@...` a i i i .. .` o. . . . ... . . .` .. . ., 2 x = K H G U H I G K = x 1 ,  . . . . . . . .E ` ..+.i.f.z.M. . . . .`  . . .",
"` ( ` =.9 s d p `  . .`  . .`  .`  .`  . . . . .1 < o : D C m D D m C D - ; 2 1  . ...`  . . . .+.` ` ,.f.n.j.j.` ..`  .o.` ` ..",
"o. .` #.i s d w  . . . . . . . . . . . . . . .` : + < + I H A H H U F I + < + > `  . . . .`  . .`  .` ' z.b.n.Z. . . . .`  . . .",
" .~ E { i p p s  . ...`  . . . . . . .`  . . .o.2 - x c m D H B B H F m c x - <  . . . . . . . . . .o.` z.j.Z.Z. . . . . . . . .",
" . . .`  ... . . . . . .`  . . .o.` ^ ( +.{  .E 2 < - % q.7.7.5.F H F M 5 < 2 2 ^ o.o.} ' W  .[  . ...' k.j.Z.Z. . . . . ... . .",
".. . . . .`  . .`  ...`  . . . .E ,.~ @.E  .Q @., < ; k 4.3.3.q.D T U C ; - . , `  .X...' ` ..o. .o.` ' z.n.Z.Z. . . . . .`  .` ",
"`  . . .`  . . . . . . ...`  .` ^ ` o. .' W  .] > - < : w.1.3.6.H Z m F < v > < [ ` W ' ` ' ^ W ..` ` ' f.n.n.j.` .. . . . . . .",
" . . . . . . . . . . . .` o. . .) o.Q Q %.{ ` ..1 2 -   N.t.8.q.V A L B O * O ; } X.@.` / E ` +.E ` o.$.i.l.z.B.o.` `  .`  . . .",
"o.` .. . . . .`  . . . . . . . .b.a.D.S.  - 1 - G D Y T N M P F y e w s q f p i 7 4 - > ] +. .} ..X. .` +.' ' ` `  . . . . . . .",
"`  .`  .` .. . . . . .`  . .`  .B.l.l.h.1 2 2 > Z N D B F H C F w p d w p i w s O 2 1 - X...E o.`  . .( ....` .. . . . . . . . .",
" . . . .o.`  .`  .`  . . . ... .A.f.B.p.c ; 2 - C N H m H B I m w p p w s d d p , 2 , ; X.' E o. . .X. . .`  . . . . . .` o.` ..",
" . . . . . . . . ... . . . .`  .l.j.B.b.- ; 2 1 H D I U D F H H d r p f w r e w , 2 O 7 } { ` ^ `  . .` ` `  . . . .` .. .`  . .",
"o.E E o.` o...~ Q ..W ! < 1 X 2 > > 2 % 2 > l 2 C H J D c - ; 6 p p p p p w w p ; 2 < < > > 2 1 2 , c X *.` ` ..p p s i { `  . .",
"E  .X.~  .`  ... .*.` o.- < o 1 > 2 c 2 ; . . , C B N D x c 2 - w p e w w p p p : 1 * 1 1 - - , 2 , ; 2 ~ o. .W w s s i { `  ...",
"@.X.~ E @.' ` E W ~ o...x > b x 2 , - ; l c 2 , H C G J = , 1 1 p p p p p p p w ; 2 ; > < 2 > 2 % o 6 1 ~ } @...p s s w <.` ` ( ",
"E E E @.( { $.{ ^ ` E :.& : + - 1 k 8 $ h @ 5 7 D D D G h 2 2 z p w w p p w p w z 2 - : z < : X - v l % >.~ R $.i i i a ` o...@.",
"@.o.{ ` a s i i , 2 x = K G I H ; X , : Z L A V r r i p , , ; + p p w p w p p p i p w u : 2 2 b i w p t % 1 c > { { { E #.~ E ( ",
"` ` ` <.9 i d p 1 < o : D C m D : j c < F m Z F i p p w 2 < + > w p w p p p w p i p i p : - = 2 p d r w c 6 ; , ` ` ` ..E ~ @...",
"o.` E #.w s s w > + 2 > I N A G < O - @ A G T H w p p r > - > 2 p w p p p w p p t y d f , 7 1 8 w p d w b - - 2 ..` E o.E X. .Q ",
" .~ ` { i s p p < 1 x 1 D D H B 2 > c 7 V D H D p w w d - 2 2 , p p p w p w p i i e 0 a , < : ; i p w s - : 1 <  ...o.` ..` ` o.",
"o. . . . .`  . .> > - % 2 > < 2 , 2 x : r w w p 2 2 : < p w p p i e i i , 8 : ; i p e d + l > < ; 2 < < > - 1 2  . . .` o. . . .",
" . ...`  ... . .+ c c 2 - O O 2 - z > X d p i w - 2 > 2 p w p e t y w f < < 1 2 p d p i < - O - 1 1 * 1 1 < - -  . . . .`  . . .",
" . . . . .`  . .2 , - > l z 2 < - > 3 - p i w f - 2 - 2 i w p p i p i p : > % < e w p w c < > x ; ; ; > 2 8 2 1  . . . .`  . .` ",
" . . .`  . . .` 1 2 8 4 h @ ; 7 > - , k q p d r 1 , > 2 p p e w i p d e h 2 2 z d p p q k x , O z 2 : : # < : X  . . . . . . ...",
" . . . .`  .` o.2 - , O Z F A V H H J n k - + > 2 > > 2 i w p p z 2 1 : # < - - + < x k q w p d i p p e h 2 1 c  .` ` o. . . . .",
"`  ...`  . ... .> . v < L N G F H Z S F l + 2 * - < - 2 w d p e ; ; : > < 2 > 2 x - - v w i p e i d i r : - 1 <  . ...`  . .`  .",
" . . . . . . . .l O - @ A B T G G m A U - ; z - 1 2 > < p p p p 1 1 1 1 - 2 - , - + - 2 p p d i e y e f , 7 1 ;  . . . ... . . .",
" . . . . . .`  .2 1 < 7 V F G D H H G H > - > < > 1 : < p w w p ; 2 2 < > - 1 2 < > x + r e p i i e 0 s , 8 : ;  . . . .`  . . .",
"l > o 7 % 2 2 + w p e e i i i i ; 1 7 < p i e i i i i i e p p w w p p e i i i i p p w w p p p w i i i i w e p p 3 > 2 * 7 + - l ",
"2 2 - < 1 2 - - p p p w p t t e 1 g 1 1 s i t i e t t f p p p p p s p w f t t e w p p p p e p w t t t p w p p p < - 2 k , - 2 2 ",
": 1 2 - 2 : 1 x w p w i p d i i 5 - ; - e d t i i i d i i i w e w w i w i d i i p w p w p p p p i i d i i w w e x 1 : 2 - 2 2 : ",
"7 ; @ > z k - % d f s a e e i p z 1 > : q w e i p i t q a s d d f d s s e e i p p w p p p w w p p i t e a s f d % : 2 $ h @ ; 7 ",
"} X.@.) j - < 7 i e w e : > 1 c i i e e a s e f z 1 2 : e w e i w w r e : > 1 z p w p p p p p w z 1 2 : e w w i 7 < X j ) @.X.} ",
"{ _ E @.; 1 2 o i f d t - ; - 5 i i d r i i w w 5 - ; : e i t i i f w t - 5 - 5 p w p w w w p p 5 1 ; - t i t i o 2 1 ; o.W W $.",
" .W ..X.5 - 2 - w t i i * , g 1 e t t p e p s p : = > 1 p w t i i t i i * > g 1 p p w p p p w p 1 = : 1 d i e w - 2 - ; X...E ` ",
"!  .#.} 7 : 1 x i e i p < 8 : 5 i i w s w e p w < 1 7 , s i t i i e i p < 8 - < w p p p p e w i ; 1 5 < s i e i x 2 : 7 } #.` ^ ",
"o. . . . ... . .x - + 5 : l 2 + i e 0 a , 7 1 ; - 2 1 ; r p p i 2 > , > 2 2 - 1 ; : < , i 0 p a + 2 x : 5 + > x o.`  .` o. .`  .",
" . . . . .`  .` 1 , - < 1 2 - - e y p f , 7 1 2 - z - o d p p r - 2 < 1 - 1 2 - 8 1 7 , f p y t - - 1 k < - 2 ,  . . . .` .. . .",
" . . . ... . . .O 2 2 : 2 : 1 c i p i d % > % < - > > > p i w p : > > : > > : > < 1 ; % p i d i c 1 : 2 - , 2 :  . . . . .`  . .",
" . .`  .`  .` o.7 ; ; h $ 2 1 % i p p u h 2 2 z 2 - , k q p d w < 1 < < , 2 < < c 1 2 h u w p i % - 2 $ > ; ; 7  .`  . . . . . .",
"`  . . . . .`  .} } @.] h - < 8 z 2 1 : # ; - - H H J n k : > ; p p p p p p p p O - < # : : 2 z 8 < - j ] @.X.}  .` ..`  . . . .",
" . . . . . . . .{ W ..o.; < 2 o ; ; : > < 2 2 2 G B S F , 3 ; * p w w p p p w p 2 1 8 2 > - ; ; o 2 , ; o.W E o. . . .o. . ...` ",
" . . . ...`  . .o.W $.X.; - 2 > 1 1 1 1 - 2 - 1 G N A U - ; z 1 w w p p w w p p , - 2 1 1 1 1 1 , 2 - ; X...W .. . . .`  . . . .",
" . .`  . . . . .^ ` { } 5 O 1 x ; 2 2 < > - , 2 G G G H > : > - p w p e p w p e 2 - - > < < 2 ; l 2 O 7 } $.E ^  . . . . . . .` ",
"`  . . .` ' ..~ o...` .. . . . .~ @.W ! x 1 O 2 H H B D H D C H p r p i G H N H 2 - 1 2 ! W o.~ p s s w D.d.B.k.` o. .` .. .`  .",
"' o.X. .` ` `  . .E o.` `  . . . .&.~  .- < o , H H H H H C H H p p p i D H B H 2 o < - o.` o.` p d d p Z.d.Z.B. .`  . .o.`  . .",
" .}  . .o.` o.@. . . . ... . . .W ~ o. .x > 8 x C H H C D H H D p p p p G D H H c c ; x ^ o.} W i p i s g.Z.n.B. . . . . . . . .",
"o. . .E +.' ' _  . . . .`  . .` ! o.E :.& : + , D H H D H H C H p e w i G H C G - O : & ;.E  .^ p s p w F.z.z.B. .`  . . . .` ..",
"E ` ..+.i.z.z.M... .o.`  . . . ., 2 x = K G I H H H D H H C H C p w p s G D C B H I F K = x 2 , Z.Z.B.D._ `  .` ..`  . . . . . .",
"..` ' ' f.n.j.j.`  .`  . . . . .1 < o - D C m D C H H C D H H D p p w i G H D H D m B D - o 2 2 n.C.A.y.<. .~  . .o.`  .`  . . .",
"`  . .' z.Z.n.Z. . ... . . .`  .> + 2 O I F A H D C H H H H D H p e w s G D C H H U F I > 2 + > n.Z.j.l...~ X. . .`  . .`  . . .",
" . .o.` k.j.Z.Z. . .`  . . . . .2 , x c D D H m H H D H C H H C p e w i H H D H B H G m 2 l - 2 B.B.n.B.`  .` '  . . . . . ...` ",
".. . .`  .`  . .j.n.B.c.`  . . . . . .`  . .` ..2 1 x c m D H B i e i p , 6 1 ; ` .. .o.`  . . .Z.Z.j.l.' o.X. . . . . . .`  . .",
"`  .` o. . . . .j.h.B.k.{  .~  . . . . . . .o.` > + 2 + I N A H p y i f , < * 2  . . .`  . . .` Z.b.b.l.' ` ` `  . . . . . . . .",
" . .` .. . . . .B.h.B.k.' ~  . .`  .`  ... . . .1 < o - D B N D i e i p - > : <  . . .`  . . . .j.h.h.f.{ ' ` '  ... . . ... . .",
" . . . . . . .` j.Z.B.c.'  . . . . ... .`  . . ., 2 x = K G I H i e w u + ; 1 <  . . . ...`  . .M.b.f.i.+.o.` W  .`  .`  .`  . .",
" . .`  . .`  . .j.V.B.k.+.~ .. . . . . . . . . .^ ` W :.& - O 1 o.#.} / *.{ Q  . . . . . ...`  .` _ ' +.E  .X.o. . . . .`  ...` ",
" . . . . . ... .j.V.B.k.'  . . .`  . . .`  . . .W ~ *.~ c > 2 v ` ^  .~ ' ..o. .` .. . .` ` o. .@. .` @.` X. .( ` ..`  .o.`  . .",
"..`  . . . .` ` B.d.B.k.`  .~ o. . .o. . . .`  . .&.}  .1 < o -  .X.~  .^ ` W `  . . . . . . . .o.` ' o. . .o... . . . .`  . . .",
" . . . . . . .o.B.B.Z.z.'  .^ ` ` ..`  . . . . .~ ..W ! 2 2 X < ' ` o.{  .~  .o. .`  . . . . . .~ ..` E  . .` `  . . . . . . . ."
};
