/* XPM */
static char *result[] = {
/* columns rows colors chars-per-pixel */
"64 64 4 1 ",
"  c gray22",
". c #287000",
"X c #60C808",
"o c #B0F850",
/* pixels */
"XXXXooooXXXXooooXXXXoooooooo        ooooXXXXooooXXXXoooooooooooo",
"XXXXooooXXXXooooXXXXoooooooo        ooooXXXXooooXXXXoooooooooooo",
"XXXXooooXXXXooooXXXXoooooooo        ooooXXXXooooXXXXoooooooooooo",
"XXXXooooXXXXooooXXXXoooooooo        ooooXXXXooooXXXXoooooooooooo",
"ooooXXXX....XXXXooooXXXX    XXXXXXXX    ....XXXXooooXXXXooooXXXX",
"ooooXXXX....XXXXooooXXXX    XXXXXXXX    ....XXXXooooXXXXooooXXXX",
"ooooXXXX....XXXXooooXXXX    XXXXXXXX    ....XXXXooooXXXXooooXXXX",
"ooooXXXX....XXXXooooXXXX    XXXXXXXX    ....XXXXooooXXXXooooXXXX",
"XXXXooooXXXXoooo....oooo    ooooXXXX    XXXXoooo....ooooXXXXoooo",
"XXXXooooXXXXoooo....oooo    ooooXXXX    XXXXoooo....ooooXXXXoooo",
"XXXXooooXXXXoooo....oooo    ooooXXXX    XXXXoooo....ooooXXXXoooo",
"XXXXooooXXXXoooo....oooo    ooooXXXX    XXXXoooo....ooooXXXXoooo",
"ooooooooooooXXXXoooo    XXXXXXXX........    XXXXooooXXXXoooooooo",
"ooooooooooooXXXXoooo    XXXXXXXX........    XXXXooooXXXXoooooooo",
"ooooooooooooXXXXoooo    XXXXXXXX........    XXXXooooXXXXoooooooo",
"ooooooooooooXXXXoooo    XXXXXXXX........    XXXXooooXXXXoooooooo",
"XXXXooooXXXX            XXXX    ........            ooooXXXXoooo",
"XXXXooooXXXX            XXXX    ........            ooooXXXXoooo",
"XXXXooooXXXX            XXXX    ........            ooooXXXXoooo",
"XXXXooooXXXX            XXXX    ........            ooooXXXXoooo",
"ooooXXXX    XXXX    XXXX....    ............    ....    ....XXXX",
"ooooXXXX    XXXX    XXXX....    ............    ....    ....XXXX",
"ooooXXXX    XXXX    XXXX....    ............    ....    ....XXXX",
"ooooXXXX    XXXX    XXXX....    ............    ....    ....XXXX",
"oooooooo            ....    ........    ....            XXXXoooo",
"oooooooo            ....    ........    ....            XXXXoooo",
"oooooooo            ....    ........    ....            XXXXoooo",
"oooooooo            ....    ........    ....            XXXXoooo",
"oooooooo    XXXXXXXX        ....            ........    oooooooo",
"oooooooo    XXXXXXXX        ....            ........    oooooooo",
"oooooooo    XXXXXXXX        ....            ........    oooooooo",
"oooooooo    XXXXXXXX        ....            ........    oooooooo",
"        ........    ....................................        ",
"        ........    ....................................        ",
"        ........    ....................................        ",
"        ........    ....................................        ",
"oooo    ....    ........    ........    ........    ....    XXXX",
"oooo    ....    ........    ........    ........    ....    XXXX",
"oooo    ....    ........    ........    ........    ....    XXXX",
"oooo    ....    ........    ........    ........    ....    XXXX",
"XXXXoooo        ....        ....            ....        XXXXoooo",
"XXXXoooo        ....        ....            ....        XXXXoooo",
"XXXXoooo        ....        ....            ....        XXXXoooo",
"XXXXoooo        ....        ....            ....        XXXXoooo",
"ooooooooXXXX            XXXX    ........            XXXXoooooooo",
"ooooooooXXXX            XXXX    ........            XXXXoooooooo",
"ooooooooXXXX            XXXX    ........            XXXXoooooooo",
"ooooooooXXXX            XXXX    ........            XXXXoooooooo",
"XXXXXXXXXXXXXXXXXXXX    XXXXXXXX....XXXX    XXXXXXXXXXXXXXXXoooo",
"XXXXXXXXXXXXXXXXXXXX    XXXXXXXX....XXXX    XXXXXXXXXXXXXXXXoooo",
"XXXXXXXXXXXXXXXXXXXX    XXXXXXXX....XXXX    XXXXXXXXXXXXXXXXoooo",
"XXXXXXXXXXXXXXXXXXXX    XXXXXXXX....XXXX    XXXXXXXXXXXXXXXXoooo",
"ooooXXXXXXXXXXXX    XXXXXXXXXXXX....XXXXXXXX    XXXXXXXXXXXXXXXX",
"ooooXXXXXXXXXXXX    XXXXXXXXXXXX....XXXXXXXX    XXXXXXXXXXXXXXXX",
"ooooXXXXXXXXXXXX    XXXXXXXXXXXX....XXXXXXXX    XXXXXXXXXXXXXXXX",
"ooooXXXXXXXXXXXX    XXXXXXXXXXXX....XXXXXXXX    XXXXXXXXXXXXXXXX",
"ooooooooXXXXXXXXXXXX....    XXXX....    ........XXXXXXXXXXXXoooo",
"ooooooooXXXXXXXXXXXX....    XXXX....    ........XXXXXXXXXXXXoooo",
"ooooooooXXXXXXXXXXXX....    XXXX....    ........XXXXXXXXXXXXoooo",
"ooooooooXXXXXXXXXXXX....    XXXX....    ........XXXXXXXXXXXXoooo",
"ooooooooooooXXXXXXXXXXXXXXXX    XXXXXXXXXXXXXXXXooooXXXXoooooooo",
"ooooooooooooXXXXXXXXXXXXXXXX    XXXXXXXXXXXXXXXXooooXXXXoooooooo",
"ooooooooooooXXXXXXXXXXXXXXXX    XXXXXXXXXXXXXXXXooooXXXXoooooooo",
"ooooooooooooXXXXXXXXXXXXXXXX    XXXXXXXXXXXXXXXXooooXXXXoooooooo"
};
